# xmcd CD database file
#
# Track frame offsets:
#	152
#	21207
#	36705
#	53895
#	69690
#	93150
#	112202
#	126497
#	142900
#	166475
#	194630
#
# Disc length: 2755 seconds
#
# Revision: 2
# Processed by: cddbd v1.5.2PL0 Copyright (c) Steve Scherf et al.
# Submitted via: CDex 1.70beta2
#
DISCID=ab0ac10b
DTITLE=KUKURUZA - Where The Sunshine Is
DYEAR=1993
DGENRE=Country
TTITLE0=Old Widow Woman
TTITLE1=Poor Wayfaring Stranger
TTITLE2=Ты мне не был чужим
TTITLE3=Coming Back To You
TTITLE4=Mountains O'Things
TTITLE5=Thet's The Easy Part
TTITLE6=I'm On My Way
TTITLE7=It's All Over Now
TTITLE8=Усталость
TTITLE9=Там, где солнечный свет
TTITLE10=Maple Leaf Rag
EXTD=KUKURUZA: \nÈðèíà Ñóðèíà\tâîêàë (2,3,4,5,6]\nÀíäðåé Øåïåëåâ\tâîêàë (9,10), áàíäæî (1,11), äîáðî (2,3,7), ïåäàë-ñòèëë (4,5,8), àêóñòè÷åñêàÿ ãèòàðà (6,9,10]\nÃåîðãèé Ïàëüìîâ\tâîêàë (7,8), ìàíäîëèíà (1,2,3,11), ãóáíàÿ ãàðìîøêà (9), àêóñòè÷åñêàÿ ãèòàðà 
EXTD=(4,5,7,8]\nÌèõàèë Âåíèêîâ\tàêóñòè÷åñêàÿ ãèòàðà (1,2,3,11), ýëåêòðè÷åñêàÿ ãèòàðà (4,5,6,7,8,9,10]\nÀëåêñåé Àáîëòûíüø\têîíòðàáàñ\nÑåðãåé Ìîñîëîâ\t                ñêðèïêà\nÀíàòîëèé Áåëü÷èêîâ\tóäàðíûå\n\n\nRecorded live at Golden Studios, Hancock, New H
EXTD=ampshire, August 1992.\nProduced and engeneered by A.Zachessov. \n\nÝòîò àëüáîì çàïèñàí âî âðåìÿ âòîðîãî òóðà ïî ÑØÀ, íî èçäàí â Ðîññèè. YEAR: 1993
EXTT0=
EXTT1=
EXTT2=
EXTT3=
EXTT4=
EXTT5=
EXTT6=
EXTT7=
EXTT8=
EXTT9=
EXTT10=
PLAYORDER=
